<svg width="125" height="30" viewBox="0 0 125 30" fill="none"
    xmlns="http://www.w3.org/2000/svg">
    <g filter="url(#filter0_d_1_196)">
        <mask id="path-1-outside-1_1_196" maskUnits="userSpaceOnUse" x="4" y="0.5" width="117" height="21" fill="black">
            <rect fill="white" x="4" y="0.5" width="117" height="21"/>
            <path d="M9.62 20.5C8.36667 20.5 7.28 20.28 6.36 19.84C5.45333 19.4133 5 18.7533 5 17.86C5 17.3267 5.22 16.8533 5.66 16.44C6.11333 16.0267 6.68667 15.6867 7.38 15.42C8.07333 15.14 8.86 14.8933 9.74 14.68C9.91333 14.6267 10.0533 14.5933 10.16 14.58L10.54 14.98C9.95333 15.1667 9.47333 15.36 9.1 15.56C8.72667 15.76 8.44 15.9867 8.24 16.24C8.04 16.48 7.94 16.7467 7.94 17.04C7.94 17.4533 8.12667 17.74 8.5 17.9C8.88667 18.0733 9.39333 18.16 10.02 18.16C10.62 18.16 11.1933 18.0933 11.74 17.96C12.3 17.8267 12.76 17.6333 13.12 17.38C13.48 17.1267 13.66 16.8267 13.66 16.48C13.66 16.2533 13.56 16.0733 13.36 15.94C13.16 15.8067 12.88 15.74 12.52 15.74C12.2 15.74 11.8733 15.7733 11.54 15.84C11.2067 15.8933 10.7933 15.98 10.3 16.1C9.87333 16.22 9.50667 16.3067 9.2 16.36C8.89333 16.4267 8.60667 16.46 8.34 16.46C7.79333 16.46 7.28667 16.3667 6.82 16.18C6.36667 15.98 6 15.7133 5.72 15.38C5.45333 15.0333 5.32 14.64 5.32 14.2C5.32 13.5867 5.62667 13.0533 6.24 12.6C6.86667 12.1333 7.72667 11.7267 8.82 11.38L9.48 11.96C9.30667 12.0133 9.14667 12.0667 9 12.12C8.65333 12.24 8.39333 12.3733 8.22 12.52C8.04667 12.6667 7.96 12.8667 7.96 13.12C7.96 13.3333 8.04667 13.4933 8.22 13.6C8.40667 13.7067 8.64 13.76 8.92 13.76C9.22667 13.76 9.54667 13.74 9.88 13.7C10.2133 13.6467 10.56 13.58 10.92 13.5C11.4933 13.3933 11.9933 13.3133 12.42 13.26C12.8467 13.2067 13.3133 13.18 13.82 13.18C14.7133 13.18 15.4533 13.3933 16.04 13.82C16.64 14.2467 16.94 14.9 16.94 15.78C16.94 16.7933 16.56 17.6533 15.8 18.36C15.0533 19.08 14.1133 19.6133 12.98 19.96C11.8467 20.32 10.7267 20.5 9.62 20.5ZM10.46 12.8C9.51333 12.8 8.67333 12.64 7.94 12.32C7.22 11.9867 6.65333 11.5267 6.24 10.94C5.84 10.3533 5.64 9.69333 5.64 8.96C5.64 8.24 5.84 7.59333 6.24 7.02C6.65333 6.43333 7.22667 5.98 7.96 5.66C8.69333 5.32667 9.52667 5.16 10.46 5.16C11.0333 5.16 11.4933 5.20667 11.84 5.3C12.2 5.39333 12.5867 5.52 13 5.68C13.16 5.74667 13.3067 5.80667 13.44 5.86C13.5867 5.9 13.7267 5.92 13.86 5.92C14.2067 5.92 14.4533 5.8 14.6 5.56C14.7467 5.32 14.82 5.00667 14.82 4.62L17.34 5.42C17.3267 5.92667 17.12 6.32 16.72 6.6C16.3333 6.86667 15.82 7 15.18 7C15.02 6.98667 14.84 6.97333 14.64 6.96C15.0667 7.54667 15.28 8.21333 15.28 8.96C15.28 9.69333 15.0733 10.3533 14.66 10.94C14.26 11.5267 13.6933 11.9867 12.96 12.32C12.2267 12.64 11.3933 12.8 10.46 12.8ZM10.46 10.84C10.7933 10.84 11.0867 10.76 11.34 10.6C11.5933 10.44 11.7867 10.22 11.92 9.94C12.0533 9.64667 12.12 9.32 12.12 8.96C12.12 8.42667 11.9667 7.98667 11.66 7.64C11.3667 7.29333 10.9667 7.12 10.46 7.12C10.1267 7.12 9.83333 7.2 9.58 7.36C9.32667 7.52 9.12667 7.74 8.98 8.02C8.84667 8.3 8.78 8.61333 8.78 8.96C8.78 9.50667 8.93333 9.96 9.24 10.32C9.56 10.6667 9.96667 10.84 10.46 10.84Z"/>
            <path d="M18.0628 5.44H21.2228V13.72C21.2228 14.6667 21.2695 15.5333 21.3628 16.32H18.0628V5.44ZM18.0228 1.5H21.2428V4.28H18.0228V1.5Z"/>
            <path d="M32.6828 16.6C31.8295 16.6 31.1628 16.3533 30.6828 15.86C30.2028 15.3667 29.9628 14.6467 29.9628 13.7V9.38C29.9628 8.74 29.8095 8.26 29.5028 7.94C29.2095 7.60667 28.7561 7.44 28.1428 7.44C27.5028 7.44 26.8828 7.62667 26.2828 8C25.6828 8.37333 25.1628 8.92 24.7228 9.64L22.5628 7.96C23.3228 7.04 24.2028 6.34667 25.2028 5.88C26.2161 5.4 27.3095 5.16 28.4828 5.16C29.5761 5.16 30.4628 5.33333 31.1428 5.68C31.8228 6.01333 32.3228 6.49333 32.6428 7.12C32.9628 7.73333 33.1228 8.46 33.1228 9.3V13.8C33.1228 13.8133 33.1228 13.8267 33.1228 13.84C33.1228 13.84 33.1228 13.8467 33.1228 13.86C33.1361 14.0867 33.1895 14.2533 33.2828 14.36C33.3761 14.4667 33.5095 14.52 33.6828 14.52C33.8295 14.52 33.9695 14.5133 34.1028 14.5C34.2495 14.4733 34.4028 14.4333 34.5628 14.38L34.1628 16.32C33.9361 16.4133 33.6961 16.48 33.4428 16.52C33.1895 16.5733 32.9361 16.6 32.6828 16.6ZM26.1628 16.6C25.0695 16.6 24.2028 16.32 23.5628 15.76C22.9361 15.1867 22.6228 14.4533 22.6228 13.56C22.6228 12.7733 22.9161 12.0733 23.5028 11.46C24.0895 10.8333 24.9628 10.3267 26.1228 9.94C27.2828 9.55333 28.7095 9.29333 30.4028 9.16V11.16C29.3761 11.2533 28.5295 11.3867 27.8628 11.56C27.2095 11.7333 26.7161 11.9533 26.3828 12.22C26.0628 12.4733 25.9028 12.78 25.9028 13.14C25.9028 13.4333 26.0095 13.6733 26.2228 13.86C26.4495 14.0333 26.7561 14.12 27.1428 14.12C27.6628 14.12 28.1361 14.0067 28.5628 13.78C28.9895 13.5533 29.3295 13.2333 29.5828 12.82C29.8361 12.4067 29.9628 11.92 29.9628 11.36L30.5828 11.54C30.5828 12.3933 30.4295 13.2067 30.1228 13.98C29.8161 14.74 29.3295 15.3667 28.6628 15.86C28.0095 16.3533 27.1761 16.6 26.1628 16.6Z"/>
            <path d="M35.4261 5.44H38.6061V8.04C39.0328 7.12 39.5394 6.41333 40.1261 5.92C40.7128 5.41333 41.3194 5.16 41.9461 5.16C42.3194 5.16 42.6528 5.22 42.9461 5.34C43.2394 5.44667 43.5328 5.6 43.8261 5.8L42.5461 8.58C42.2661 8.39333 42.0128 8.26 41.7861 8.18C41.5594 8.08667 41.2994 8.04 41.0061 8.04C40.5794 8.04 40.1861 8.16667 39.8261 8.42C39.4661 8.66 39.1728 9.02667 38.9461 9.52C38.7194 10.0133 38.6061 10.6067 38.6061 11.3V13.72C38.6061 14.6667 38.6528 15.5333 38.7461 16.32H35.4261V5.44Z"/>
            <path d="M48.6012 16.6C47.5612 16.6 46.6546 16.3667 45.8812 15.9C45.1079 15.42 44.5079 14.7533 44.0812 13.9C43.6679 13.0333 43.4613 12.0267 43.4613 10.88C43.4613 9.73333 43.6679 8.73333 44.0812 7.88C44.5079 7.01333 45.1079 6.34667 45.8812 5.88C46.6546 5.4 47.5612 5.16 48.6012 5.16C49.3346 5.16 50.0213 5.34667 50.6613 5.72C51.3013 6.09333 51.8212 6.60667 52.2212 7.26V2.02H55V13.72C55 14.6667 55.0533 15.5333 55.16 16.32H52.2212V14.42C51.8346 15.1 51.3212 15.6333 50.6812 16.02C50.0546 16.4067 49.3612 16.6 48.6012 16.6ZM46.8013 10.88C46.8013 11.5333 46.9146 12.1133 47.1413 12.62C47.3679 13.1133 47.6812 13.5 48.0812 13.78C48.4812 14.0467 48.9546 14.18 49.5013 14.18C49.9946 14.18 50.4479 14.04 50.8612 13.76C51.2746 13.48 51.6012 13.1133 51.8412 12.66C52.0946 12.1933 52.2212 11.7 52.2212 11.18V10.58C52.2212 10.0333 52.0946 9.53333 51.8412 9.08C51.5879 8.62667 51.2479 8.26667 50.8213 8C50.4079 7.72 49.9679 7.58 49.5013 7.58C48.9546 7.58 48.4812 7.72 48.0812 8C47.6812 8.26667 47.3679 8.65333 47.1413 9.16C46.9146 9.65333 46.8013 10.2267 46.8013 10.88Z"/>
            <path d="M62.0434 16.6C61.0301 16.6 60.1301 16.36 59.3434 15.88C58.5568 15.4 57.9434 14.7267 57.5034 13.86C57.0768 12.9933 56.8634 12 56.8634 10.88C56.8634 9.76 57.0768 8.76667 57.5034 7.9C57.9434 7.03333 58.5568 6.36 59.3434 5.88C60.1301 5.4 61.0301 5.16 62.0434 5.16C62.9101 5.16 63.6968 5.39333 64.4034 5.86C65.1234 6.31333 65.6768 6.93333 66.0634 7.72V2.02H67.8834V13.72C67.8834 14.68 67.9168 15.5467 67.9834 16.32H66.0634V14.02C65.6901 14.8067 65.1434 15.4333 64.4234 15.9C63.7168 16.3667 62.9234 16.6 62.0434 16.6ZM58.8234 10.88C58.8234 11.7067 58.9768 12.4467 59.2834 13.1C59.5901 13.74 60.0168 14.24 60.5634 14.6C61.1101 14.96 61.7368 15.14 62.4434 15.14C63.1101 15.14 63.7168 14.9667 64.2634 14.62C64.8234 14.2733 65.2634 13.82 65.5834 13.26C65.9034 12.6867 66.0634 12.06 66.0634 11.38V10.38C66.0634 9.7 65.8968 9.07333 65.5634 8.5C65.2434 7.92667 64.8034 7.47333 64.2434 7.14C63.6968 6.79333 63.0968 6.62 62.4434 6.62C61.7368 6.62 61.1101 6.8 60.5634 7.16C60.0168 7.52 59.5901 8.02667 59.2834 8.68C58.9768 9.32 58.8234 10.0533 58.8234 10.88Z"/>
            <path d="M75.2959 16.6C74.3093 16.6 73.3959 16.3933 72.5559 15.98C71.7159 15.5667 71.0426 14.9533 70.5359 14.14C70.0426 13.3267 69.7959 12.34 69.7959 11.18C69.7959 10.02 70.0293 8.98667 70.4959 8.08C70.9759 7.16 71.6293 6.44667 72.4559 5.94C73.2959 5.42 74.2493 5.16 75.3159 5.16C76.4093 5.16 77.3359 5.40667 78.0959 5.9C78.8559 6.39333 79.4293 7.09333 79.8159 8C80.2159 8.89333 80.4159 9.94 80.4159 11.14H70.6959V9.72H79.1959L78.5359 10.3C78.5359 9.59333 78.4093 8.96 78.1559 8.4C77.9026 7.82667 77.5293 7.38 77.0359 7.06C76.5559 6.74 75.9826 6.58 75.3159 6.58C74.5959 6.58 73.9626 6.76667 73.4159 7.14C72.8826 7.5 72.4626 8.02667 72.1559 8.72C71.8493 9.4 71.6959 10.1933 71.6959 11.1C71.6959 12.02 71.8626 12.7867 72.1959 13.4C72.5293 14.0133 72.9693 14.4667 73.5159 14.76C74.0626 15.04 74.6626 15.18 75.3159 15.18C76.2626 15.18 77.0493 14.9333 77.6759 14.44C78.3159 13.9467 78.7759 13.3267 79.0559 12.58L80.5759 13.64C79.9493 14.6 79.1893 15.3333 78.2959 15.84C77.4026 16.3467 76.4026 16.6 75.2959 16.6Z"/>
            <path d="M86.8277 16.6C85.6943 16.6 84.6343 16.3533 83.6477 15.86C82.6743 15.3533 81.8943 14.66 81.3077 13.78L82.6677 12.66C83.041 13.4733 83.601 14.1067 84.3477 14.56C85.1077 15.0133 85.9477 15.24 86.8677 15.24C87.3477 15.24 87.7743 15.1733 88.1477 15.04C88.521 14.8933 88.8143 14.6933 89.0277 14.44C89.241 14.1733 89.3477 13.86 89.3477 13.5C89.3477 13.1133 89.2077 12.7933 88.9277 12.54C88.6477 12.2733 88.301 12.0667 87.8877 11.92C87.4877 11.76 86.9277 11.5867 86.2077 11.4C85.3143 11.16 84.5877 10.9333 84.0277 10.72C83.481 10.4933 83.0077 10.1733 82.6077 9.76C82.221 9.34667 82.0277 8.8 82.0277 8.12C82.0277 7.54667 82.1943 7.03333 82.5277 6.58C82.861 6.12667 83.3343 5.78 83.9477 5.54C84.561 5.28667 85.2543 5.16 86.0277 5.16C87.001 5.16 87.901 5.32667 88.7277 5.66C89.5677 5.99333 90.3077 6.58667 90.9477 7.44L89.5877 8.56C89.2677 7.89333 88.781 7.38667 88.1277 7.04C87.4743 6.69333 86.7677 6.52 86.0077 6.52C85.3543 6.52 84.821 6.65333 84.4077 6.92C84.0077 7.17333 83.8077 7.51333 83.8077 7.94C83.8077 8.28667 83.9343 8.57333 84.1877 8.8C84.4543 9.02667 84.781 9.21333 85.1677 9.36C85.5543 9.49333 86.081 9.64667 86.7477 9.82C87.681 10.0733 88.4343 10.3133 89.0077 10.54C89.5943 10.7667 90.0943 11.1067 90.5077 11.56C90.9343 12 91.1477 12.5867 91.1477 13.32C91.1477 13.9867 90.9543 14.5733 90.5677 15.08C90.181 15.5733 89.661 15.9533 89.0077 16.22C88.3677 16.4733 87.641 16.6 86.8277 16.6Z"/>
            <path d="M92.8359 5.44H94.6559V13.72C94.6559 14.68 94.6893 15.5467 94.7559 16.32H92.8359V5.44ZM92.7159 1.86H94.7759V3.8H92.7159V1.86Z"/>
            <path d="M100.293 20.5C99.1733 20.5 98.2133 20.2733 97.4133 19.82C96.6133 19.3667 96.2133 18.7 96.2133 17.82C96.2133 17.3267 96.3866 16.8867 96.7333 16.5C97.0799 16.1133 97.5466 15.7867 98.1333 15.52C98.7199 15.24 99.4199 15 100.233 14.8C100.393 14.76 100.533 14.7267 100.653 14.7L100.893 15.02C100.28 15.22 99.7666 15.4333 99.3533 15.66C98.9399 15.8733 98.6133 16.1267 98.3733 16.42C98.1333 16.7133 98.0133 17.06 98.0133 17.46C98.0133 18.02 98.2599 18.4333 98.7533 18.7C99.2599 18.9667 99.8866 19.1 100.633 19.1C101.433 19.1 102.213 18.98 102.973 18.74C103.747 18.5 104.373 18.16 104.853 17.72C105.333 17.2933 105.573 16.8 105.573 16.24C105.573 15.8533 105.44 15.5533 105.173 15.34C104.907 15.1133 104.52 15 104.013 15C103.693 15 103.347 15.04 102.973 15.12C102.613 15.1867 102.12 15.3 101.493 15.46C100.973 15.6067 100.54 15.72 100.193 15.8C99.8466 15.8667 99.5399 15.9 99.2733 15.9C98.7933 15.9 98.3466 15.8333 97.9333 15.7C97.5333 15.5533 97.2066 15.3467 96.9533 15.08C96.7133 14.8 96.5933 14.4733 96.5933 14.1C96.5933 13.54 96.8733 13.0467 97.4333 12.62C97.9933 12.18 98.7466 11.8333 99.6933 11.58L100.073 12.08C99.7933 12.16 99.56 12.2467 99.3733 12.34C98.9733 12.5 98.6799 12.6867 98.4933 12.9C98.3066 13.1 98.2133 13.32 98.2133 13.56C98.2133 13.8267 98.3333 14.0133 98.5733 14.12C98.8133 14.2267 99.1266 14.28 99.5133 14.28C99.8466 14.28 100.193 14.2467 100.553 14.18C100.913 14.1 101.327 14 101.793 13.88C102.353 13.7333 102.833 13.6267 103.233 13.56C103.647 13.48 104.073 13.44 104.513 13.44C105.42 13.44 106.147 13.6533 106.693 14.08C107.24 14.5067 107.513 15.1267 107.513 15.94C107.513 16.86 107.153 17.6667 106.433 18.36C105.727 19.0533 104.813 19.58 103.693 19.94C102.587 20.3133 101.453 20.5 100.293 20.5ZM101.373 12.68C100.52 12.68 99.7666 12.52 99.1133 12.2C98.4599 11.8667 97.9466 11.4133 97.5733 10.84C97.2133 10.2667 97.0333 9.62667 97.0333 8.92C97.0333 8.21333 97.2133 7.57333 97.5733 7C97.9466 6.42667 98.4599 5.98 99.1133 5.66C99.7799 5.32667 100.533 5.16 101.373 5.16C101.947 5.16 102.42 5.22 102.793 5.34C103.167 5.46 103.56 5.62 103.973 5.82C104.2 5.94 104.393 6.03333 104.553 6.1C104.713 6.15333 104.88 6.18 105.053 6.18C105.453 6.18 105.74 6.06 105.913 5.82C106.1 5.56667 106.193 5.24 106.193 4.84L107.713 5.36C107.7 5.89333 107.493 6.3 107.093 6.58C106.693 6.86 106.227 7 105.693 7C105.56 7 105.38 6.98667 105.153 6.96C105.54 7.52 105.733 8.17333 105.733 8.92C105.733 9.62667 105.553 10.2667 105.193 10.84C104.833 11.4133 104.32 11.8667 103.653 12.2C102.987 12.52 102.227 12.68 101.373 12.68ZM101.373 11.46C101.893 11.46 102.34 11.3533 102.713 11.14C103.087 10.9133 103.373 10.6067 103.573 10.22C103.773 9.82 103.873 9.38667 103.873 8.92C103.873 8.2 103.647 7.6 103.193 7.12C102.753 6.62667 102.147 6.38 101.373 6.38C100.867 6.38 100.42 6.49333 100.033 6.72C99.6599 6.94667 99.3733 7.25333 99.1733 7.64C98.9866 8.01333 98.8933 8.44 98.8933 8.92C98.8933 9.65333 99.1133 10.26 99.5533 10.74C100.007 11.22 100.613 11.46 101.373 11.46Z"/>
            <path d="M109.008 5.44H110.828V8.6C111.094 7.92 111.474 7.32 111.968 6.8C112.461 6.28 113.021 5.88 113.648 5.6C114.274 5.30667 114.914 5.16 115.568 5.16C116.381 5.16 117.061 5.32 117.608 5.64C118.168 5.94667 118.581 6.37333 118.848 6.92C119.128 7.46667 119.268 8.1 119.268 8.82V13.72C119.268 14.68 119.301 15.5467 119.368 16.32H117.448V9.1C117.448 8.3 117.248 7.69333 116.848 7.28C116.461 6.86667 115.841 6.66 114.988 6.66C114.361 6.66 113.721 6.85333 113.068 7.24C112.428 7.62667 111.894 8.17333 111.468 8.88C111.041 9.57333 110.828 10.38 110.828 11.3V16.32H109.008V5.44Z"/>
        </mask>
        <path d="M9.62 20.5C8.36667 20.5 7.28 20.28 6.36 19.84C5.45333 19.4133 5 18.7533 5 17.86C5 17.3267 5.22 16.8533 5.66 16.44C6.11333 16.0267 6.68667 15.6867 7.38 15.42C8.07333 15.14 8.86 14.8933 9.74 14.68C9.91333 14.6267 10.0533 14.5933 10.16 14.58L10.54 14.98C9.95333 15.1667 9.47333 15.36 9.1 15.56C8.72667 15.76 8.44 15.9867 8.24 16.24C8.04 16.48 7.94 16.7467 7.94 17.04C7.94 17.4533 8.12667 17.74 8.5 17.9C8.88667 18.0733 9.39333 18.16 10.02 18.16C10.62 18.16 11.1933 18.0933 11.74 17.96C12.3 17.8267 12.76 17.6333 13.12 17.38C13.48 17.1267 13.66 16.8267 13.66 16.48C13.66 16.2533 13.56 16.0733 13.36 15.94C13.16 15.8067 12.88 15.74 12.52 15.74C12.2 15.74 11.8733 15.7733 11.54 15.84C11.2067 15.8933 10.7933 15.98 10.3 16.1C9.87333 16.22 9.50667 16.3067 9.2 16.36C8.89333 16.4267 8.60667 16.46 8.34 16.46C7.79333 16.46 7.28667 16.3667 6.82 16.18C6.36667 15.98 6 15.7133 5.72 15.38C5.45333 15.0333 5.32 14.64 5.32 14.2C5.32 13.5867 5.62667 13.0533 6.24 12.6C6.86667 12.1333 7.72667 11.7267 8.82 11.38L9.48 11.96C9.30667 12.0133 9.14667 12.0667 9 12.12C8.65333 12.24 8.39333 12.3733 8.22 12.52C8.04667 12.6667 7.96 12.8667 7.96 13.12C7.96 13.3333 8.04667 13.4933 8.22 13.6C8.40667 13.7067 8.64 13.76 8.92 13.76C9.22667 13.76 9.54667 13.74 9.88 13.7C10.2133 13.6467 10.56 13.58 10.92 13.5C11.4933 13.3933 11.9933 13.3133 12.42 13.26C12.8467 13.2067 13.3133 13.18 13.82 13.18C14.7133 13.18 15.4533 13.3933 16.04 13.82C16.64 14.2467 16.94 14.9 16.94 15.78C16.94 16.7933 16.56 17.6533 15.8 18.36C15.0533 19.08 14.1133 19.6133 12.98 19.96C11.8467 20.32 10.7267 20.5 9.62 20.5ZM10.46 12.8C9.51333 12.8 8.67333 12.64 7.94 12.32C7.22 11.9867 6.65333 11.5267 6.24 10.94C5.84 10.3533 5.64 9.69333 5.64 8.96C5.64 8.24 5.84 7.59333 6.24 7.02C6.65333 6.43333 7.22667 5.98 7.96 5.66C8.69333 5.32667 9.52667 5.16 10.46 5.16C11.0333 5.16 11.4933 5.20667 11.84 5.3C12.2 5.39333 12.5867 5.52 13 5.68C13.16 5.74667 13.3067 5.80667 13.44 5.86C13.5867 5.9 13.7267 5.92 13.86 5.92C14.2067 5.92 14.4533 5.8 14.6 5.56C14.7467 5.32 14.82 5.00667 14.82 4.62L17.34 5.42C17.3267 5.92667 17.12 6.32 16.72 6.6C16.3333 6.86667 15.82 7 15.18 7C15.02 6.98667 14.84 6.97333 14.64 6.96C15.0667 7.54667 15.28 8.21333 15.28 8.96C15.28 9.69333 15.0733 10.3533 14.66 10.94C14.26 11.5267 13.6933 11.9867 12.96 12.32C12.2267 12.64 11.3933 12.8 10.46 12.8ZM10.46 10.84C10.7933 10.84 11.0867 10.76 11.34 10.6C11.5933 10.44 11.7867 10.22 11.92 9.94C12.0533 9.64667 12.12 9.32 12.12 8.96C12.12 8.42667 11.9667 7.98667 11.66 7.64C11.3667 7.29333 10.9667 7.12 10.46 7.12C10.1267 7.12 9.83333 7.2 9.58 7.36C9.32667 7.52 9.12667 7.74 8.98 8.02C8.84667 8.3 8.78 8.61333 8.78 8.96C8.78 9.50667 8.93333 9.96 9.24 10.32C9.56 10.6667 9.96667 10.84 10.46 10.84Z" fill="#111111"/>
        <path d="M18.0628 5.44H21.2228V13.72C21.2228 14.6667 21.2695 15.5333 21.3628 16.32H18.0628V5.44ZM18.0228 1.5H21.2428V4.28H18.0228V1.5Z" fill="#111111"/>
        <path d="M32.6828 16.6C31.8295 16.6 31.1628 16.3533 30.6828 15.86C30.2028 15.3667 29.9628 14.6467 29.9628 13.7V9.38C29.9628 8.74 29.8095 8.26 29.5028 7.94C29.2095 7.60667 28.7561 7.44 28.1428 7.44C27.5028 7.44 26.8828 7.62667 26.2828 8C25.6828 8.37333 25.1628 8.92 24.7228 9.64L22.5628 7.96C23.3228 7.04 24.2028 6.34667 25.2028 5.88C26.2161 5.4 27.3095 5.16 28.4828 5.16C29.5761 5.16 30.4628 5.33333 31.1428 5.68C31.8228 6.01333 32.3228 6.49333 32.6428 7.12C32.9628 7.73333 33.1228 8.46 33.1228 9.3V13.8C33.1228 13.8133 33.1228 13.8267 33.1228 13.84C33.1228 13.84 33.1228 13.8467 33.1228 13.86C33.1361 14.0867 33.1895 14.2533 33.2828 14.36C33.3761 14.4667 33.5095 14.52 33.6828 14.52C33.8295 14.52 33.9695 14.5133 34.1028 14.5C34.2495 14.4733 34.4028 14.4333 34.5628 14.38L34.1628 16.32C33.9361 16.4133 33.6961 16.48 33.4428 16.52C33.1895 16.5733 32.9361 16.6 32.6828 16.6ZM26.1628 16.6C25.0695 16.6 24.2028 16.32 23.5628 15.76C22.9361 15.1867 22.6228 14.4533 22.6228 13.56C22.6228 12.7733 22.9161 12.0733 23.5028 11.46C24.0895 10.8333 24.9628 10.3267 26.1228 9.94C27.2828 9.55333 28.7095 9.29333 30.4028 9.16V11.16C29.3761 11.2533 28.5295 11.3867 27.8628 11.56C27.2095 11.7333 26.7161 11.9533 26.3828 12.22C26.0628 12.4733 25.9028 12.78 25.9028 13.14C25.9028 13.4333 26.0095 13.6733 26.2228 13.86C26.4495 14.0333 26.7561 14.12 27.1428 14.12C27.6628 14.12 28.1361 14.0067 28.5628 13.78C28.9895 13.5533 29.3295 13.2333 29.5828 12.82C29.8361 12.4067 29.9628 11.92 29.9628 11.36L30.5828 11.54C30.5828 12.3933 30.4295 13.2067 30.1228 13.98C29.8161 14.74 29.3295 15.3667 28.6628 15.86C28.0095 16.3533 27.1761 16.6 26.1628 16.6Z" fill="#111111"/>
        <path d="M35.4261 5.44H38.6061V8.04C39.0328 7.12 39.5394 6.41333 40.1261 5.92C40.7128 5.41333 41.3194 5.16 41.9461 5.16C42.3194 5.16 42.6528 5.22 42.9461 5.34C43.2394 5.44667 43.5328 5.6 43.8261 5.8L42.5461 8.58C42.2661 8.39333 42.0128 8.26 41.7861 8.18C41.5594 8.08667 41.2994 8.04 41.0061 8.04C40.5794 8.04 40.1861 8.16667 39.8261 8.42C39.4661 8.66 39.1728 9.02667 38.9461 9.52C38.7194 10.0133 38.6061 10.6067 38.6061 11.3V13.72C38.6061 14.6667 38.6528 15.5333 38.7461 16.32H35.4261V5.44Z" fill="#111111"/>
        <path d="M48.6012 16.6C47.5612 16.6 46.6546 16.3667 45.8812 15.9C45.1079 15.42 44.5079 14.7533 44.0812 13.9C43.6679 13.0333 43.4613 12.0267 43.4613 10.88C43.4613 9.73333 43.6679 8.73333 44.0812 7.88C44.5079 7.01333 45.1079 6.34667 45.8812 5.88C46.6546 5.4 47.5612 5.16 48.6012 5.16C49.3346 5.16 50.0213 5.34667 50.6613 5.72C51.3013 6.09333 51.8212 6.60667 52.2212 7.26V2.02H55V13.72C55 14.6667 55.0533 15.5333 55.16 16.32H52.2212V14.42C51.8346 15.1 51.3212 15.6333 50.6812 16.02C50.0546 16.4067 49.3612 16.6 48.6012 16.6ZM46.8013 10.88C46.8013 11.5333 46.9146 12.1133 47.1413 12.62C47.3679 13.1133 47.6812 13.5 48.0812 13.78C48.4812 14.0467 48.9546 14.18 49.5013 14.18C49.9946 14.18 50.4479 14.04 50.8612 13.76C51.2746 13.48 51.6012 13.1133 51.8412 12.66C52.0946 12.1933 52.2212 11.7 52.2212 11.18V10.58C52.2212 10.0333 52.0946 9.53333 51.8412 9.08C51.5879 8.62667 51.2479 8.26667 50.8213 8C50.4079 7.72 49.9679 7.58 49.5013 7.58C48.9546 7.58 48.4812 7.72 48.0812 8C47.6812 8.26667 47.3679 8.65333 47.1413 9.16C46.9146 9.65333 46.8013 10.2267 46.8013 10.88Z" fill="#111111"/>
        <path d="M62.0434 16.6C61.0301 16.6 60.1301 16.36 59.3434 15.88C58.5568 15.4 57.9434 14.7267 57.5034 13.86C57.0768 12.9933 56.8634 12 56.8634 10.88C56.8634 9.76 57.0768 8.76667 57.5034 7.9C57.9434 7.03333 58.5568 6.36 59.3434 5.88C60.1301 5.4 61.0301 5.16 62.0434 5.16C62.9101 5.16 63.6968 5.39333 64.4034 5.86C65.1234 6.31333 65.6768 6.93333 66.0634 7.72V2.02H67.8834V13.72C67.8834 14.68 67.9168 15.5467 67.9834 16.32H66.0634V14.02C65.6901 14.8067 65.1434 15.4333 64.4234 15.9C63.7168 16.3667 62.9234 16.6 62.0434 16.6ZM58.8234 10.88C58.8234 11.7067 58.9768 12.4467 59.2834 13.1C59.5901 13.74 60.0168 14.24 60.5634 14.6C61.1101 14.96 61.7368 15.14 62.4434 15.14C63.1101 15.14 63.7168 14.9667 64.2634 14.62C64.8234 14.2733 65.2634 13.82 65.5834 13.26C65.9034 12.6867 66.0634 12.06 66.0634 11.38V10.38C66.0634 9.7 65.8968 9.07333 65.5634 8.5C65.2434 7.92667 64.8034 7.47333 64.2434 7.14C63.6968 6.79333 63.0968 6.62 62.4434 6.62C61.7368 6.62 61.1101 6.8 60.5634 7.16C60.0168 7.52 59.5901 8.02667 59.2834 8.68C58.9768 9.32 58.8234 10.0533 58.8234 10.88Z" fill="#111111"/>
        <path d="M75.2959 16.6C74.3093 16.6 73.3959 16.3933 72.5559 15.98C71.7159 15.5667 71.0426 14.9533 70.5359 14.14C70.0426 13.3267 69.7959 12.34 69.7959 11.18C69.7959 10.02 70.0293 8.98667 70.4959 8.08C70.9759 7.16 71.6293 6.44667 72.4559 5.94C73.2959 5.42 74.2493 5.16 75.3159 5.16C76.4093 5.16 77.3359 5.40667 78.0959 5.9C78.8559 6.39333 79.4293 7.09333 79.8159 8C80.2159 8.89333 80.4159 9.94 80.4159 11.14H70.6959V9.72H79.1959L78.5359 10.3C78.5359 9.59333 78.4093 8.96 78.1559 8.4C77.9026 7.82667 77.5293 7.38 77.0359 7.06C76.5559 6.74 75.9826 6.58 75.3159 6.58C74.5959 6.58 73.9626 6.76667 73.4159 7.14C72.8826 7.5 72.4626 8.02667 72.1559 8.72C71.8493 9.4 71.6959 10.1933 71.6959 11.1C71.6959 12.02 71.8626 12.7867 72.1959 13.4C72.5293 14.0133 72.9693 14.4667 73.5159 14.76C74.0626 15.04 74.6626 15.18 75.3159 15.18C76.2626 15.18 77.0493 14.9333 77.6759 14.44C78.3159 13.9467 78.7759 13.3267 79.0559 12.58L80.5759 13.64C79.9493 14.6 79.1893 15.3333 78.2959 15.84C77.4026 16.3467 76.4026 16.6 75.2959 16.6Z" fill="#111111"/>
        <path d="M86.8277 16.6C85.6943 16.6 84.6343 16.3533 83.6477 15.86C82.6743 15.3533 81.8943 14.66 81.3077 13.78L82.6677 12.66C83.041 13.4733 83.601 14.1067 84.3477 14.56C85.1077 15.0133 85.9477 15.24 86.8677 15.24C87.3477 15.24 87.7743 15.1733 88.1477 15.04C88.521 14.8933 88.8143 14.6933 89.0277 14.44C89.241 14.1733 89.3477 13.86 89.3477 13.5C89.3477 13.1133 89.2077 12.7933 88.9277 12.54C88.6477 12.2733 88.301 12.0667 87.8877 11.92C87.4877 11.76 86.9277 11.5867 86.2077 11.4C85.3143 11.16 84.5877 10.9333 84.0277 10.72C83.481 10.4933 83.0077 10.1733 82.6077 9.76C82.221 9.34667 82.0277 8.8 82.0277 8.12C82.0277 7.54667 82.1943 7.03333 82.5277 6.58C82.861 6.12667 83.3343 5.78 83.9477 5.54C84.561 5.28667 85.2543 5.16 86.0277 5.16C87.001 5.16 87.901 5.32667 88.7277 5.66C89.5677 5.99333 90.3077 6.58667 90.9477 7.44L89.5877 8.56C89.2677 7.89333 88.781 7.38667 88.1277 7.04C87.4743 6.69333 86.7677 6.52 86.0077 6.52C85.3543 6.52 84.821 6.65333 84.4077 6.92C84.0077 7.17333 83.8077 7.51333 83.8077 7.94C83.8077 8.28667 83.9343 8.57333 84.1877 8.8C84.4543 9.02667 84.781 9.21333 85.1677 9.36C85.5543 9.49333 86.081 9.64667 86.7477 9.82C87.681 10.0733 88.4343 10.3133 89.0077 10.54C89.5943 10.7667 90.0943 11.1067 90.5077 11.56C90.9343 12 91.1477 12.5867 91.1477 13.32C91.1477 13.9867 90.9543 14.5733 90.5677 15.08C90.181 15.5733 89.661 15.9533 89.0077 16.22C88.3677 16.4733 87.641 16.6 86.8277 16.6Z" fill="#111111"/>
        <path d="M92.8359 5.44H94.6559V13.72C94.6559 14.68 94.6893 15.5467 94.7559 16.32H92.8359V5.44ZM92.7159 1.86H94.7759V3.8H92.7159V1.86Z" fill="#111111"/>
        <path d="M100.293 20.5C99.1733 20.5 98.2133 20.2733 97.4133 19.82C96.6133 19.3667 96.2133 18.7 96.2133 17.82C96.2133 17.3267 96.3866 16.8867 96.7333 16.5C97.0799 16.1133 97.5466 15.7867 98.1333 15.52C98.7199 15.24 99.4199 15 100.233 14.8C100.393 14.76 100.533 14.7267 100.653 14.7L100.893 15.02C100.28 15.22 99.7666 15.4333 99.3533 15.66C98.9399 15.8733 98.6133 16.1267 98.3733 16.42C98.1333 16.7133 98.0133 17.06 98.0133 17.46C98.0133 18.02 98.2599 18.4333 98.7533 18.7C99.2599 18.9667 99.8866 19.1 100.633 19.1C101.433 19.1 102.213 18.98 102.973 18.74C103.747 18.5 104.373 18.16 104.853 17.72C105.333 17.2933 105.573 16.8 105.573 16.24C105.573 15.8533 105.44 15.5533 105.173 15.34C104.907 15.1133 104.52 15 104.013 15C103.693 15 103.347 15.04 102.973 15.12C102.613 15.1867 102.12 15.3 101.493 15.46C100.973 15.6067 100.54 15.72 100.193 15.8C99.8466 15.8667 99.5399 15.9 99.2733 15.9C98.7933 15.9 98.3466 15.8333 97.9333 15.7C97.5333 15.5533 97.2066 15.3467 96.9533 15.08C96.7133 14.8 96.5933 14.4733 96.5933 14.1C96.5933 13.54 96.8733 13.0467 97.4333 12.62C97.9933 12.18 98.7466 11.8333 99.6933 11.58L100.073 12.08C99.7933 12.16 99.56 12.2467 99.3733 12.34C98.9733 12.5 98.6799 12.6867 98.4933 12.9C98.3066 13.1 98.2133 13.32 98.2133 13.56C98.2133 13.8267 98.3333 14.0133 98.5733 14.12C98.8133 14.2267 99.1266 14.28 99.5133 14.28C99.8466 14.28 100.193 14.2467 100.553 14.18C100.913 14.1 101.327 14 101.793 13.88C102.353 13.7333 102.833 13.6267 103.233 13.56C103.647 13.48 104.073 13.44 104.513 13.44C105.42 13.44 106.147 13.6533 106.693 14.08C107.24 14.5067 107.513 15.1267 107.513 15.94C107.513 16.86 107.153 17.6667 106.433 18.36C105.727 19.0533 104.813 19.58 103.693 19.94C102.587 20.3133 101.453 20.5 100.293 20.5ZM101.373 12.68C100.52 12.68 99.7666 12.52 99.1133 12.2C98.4599 11.8667 97.9466 11.4133 97.5733 10.84C97.2133 10.2667 97.0333 9.62667 97.0333 8.92C97.0333 8.21333 97.2133 7.57333 97.5733 7C97.9466 6.42667 98.4599 5.98 99.1133 5.66C99.7799 5.32667 100.533 5.16 101.373 5.16C101.947 5.16 102.42 5.22 102.793 5.34C103.167 5.46 103.56 5.62 103.973 5.82C104.2 5.94 104.393 6.03333 104.553 6.1C104.713 6.15333 104.88 6.18 105.053 6.18C105.453 6.18 105.74 6.06 105.913 5.82C106.1 5.56667 106.193 5.24 106.193 4.84L107.713 5.36C107.7 5.89333 107.493 6.3 107.093 6.58C106.693 6.86 106.227 7 105.693 7C105.56 7 105.38 6.98667 105.153 6.96C105.54 7.52 105.733 8.17333 105.733 8.92C105.733 9.62667 105.553 10.2667 105.193 10.84C104.833 11.4133 104.32 11.8667 103.653 12.2C102.987 12.52 102.227 12.68 101.373 12.68ZM101.373 11.46C101.893 11.46 102.34 11.3533 102.713 11.14C103.087 10.9133 103.373 10.6067 103.573 10.22C103.773 9.82 103.873 9.38667 103.873 8.92C103.873 8.2 103.647 7.6 103.193 7.12C102.753 6.62667 102.147 6.38 101.373 6.38C100.867 6.38 100.42 6.49333 100.033 6.72C99.6599 6.94667 99.3733 7.25333 99.1733 7.64C98.9866 8.01333 98.8933 8.44 98.8933 8.92C98.8933 9.65333 99.1133 10.26 99.5533 10.74C100.007 11.22 100.613 11.46 101.373 11.46Z" fill="#111111"/>
        <path d="M109.008 5.44H110.828V8.6C111.094 7.92 111.474 7.32 111.968 6.8C112.461 6.28 113.021 5.88 113.648 5.6C114.274 5.30667 114.914 5.16 115.568 5.16C116.381 5.16 117.061 5.32 117.608 5.64C118.168 5.94667 118.581 6.37333 118.848 6.92C119.128 7.46667 119.268 8.1 119.268 8.82V13.72C119.268 14.68 119.301 15.5467 119.368 16.32H117.448V9.1C117.448 8.3 117.248 7.69333 116.848 7.28C116.461 6.86667 115.841 6.66 114.988 6.66C114.361 6.66 113.721 6.85333 113.068 7.24C112.428 7.62667 111.894 8.17333 111.468 8.88C111.041 9.57333 110.828 10.38 110.828 11.3V16.32H109.008V5.44Z" fill="#111111"/>
        <path d="M9.62 20.5C8.36667 20.5 7.28 20.28 6.36 19.84C5.45333 19.4133 5 18.7533 5 17.86C5 17.3267 5.22 16.8533 5.66 16.44C6.11333 16.0267 6.68667 15.6867 7.38 15.42C8.07333 15.14 8.86 14.8933 9.74 14.68C9.91333 14.6267 10.0533 14.5933 10.16 14.58L10.54 14.98C9.95333 15.1667 9.47333 15.36 9.1 15.56C8.72667 15.76 8.44 15.9867 8.24 16.24C8.04 16.48 7.94 16.7467 7.94 17.04C7.94 17.4533 8.12667 17.74 8.5 17.9C8.88667 18.0733 9.39333 18.16 10.02 18.16C10.62 18.16 11.1933 18.0933 11.74 17.96C12.3 17.8267 12.76 17.6333 13.12 17.38C13.48 17.1267 13.66 16.8267 13.66 16.48C13.66 16.2533 13.56 16.0733 13.36 15.94C13.16 15.8067 12.88 15.74 12.52 15.74C12.2 15.74 11.8733 15.7733 11.54 15.84C11.2067 15.8933 10.7933 15.98 10.3 16.1C9.87333 16.22 9.50667 16.3067 9.2 16.36C8.89333 16.4267 8.60667 16.46 8.34 16.46C7.79333 16.46 7.28667 16.3667 6.82 16.18C6.36667 15.98 6 15.7133 5.72 15.38C5.45333 15.0333 5.32 14.64 5.32 14.2C5.32 13.5867 5.62667 13.0533 6.24 12.6C6.86667 12.1333 7.72667 11.7267 8.82 11.38L9.48 11.96C9.30667 12.0133 9.14667 12.0667 9 12.12C8.65333 12.24 8.39333 12.3733 8.22 12.52C8.04667 12.6667 7.96 12.8667 7.96 13.12C7.96 13.3333 8.04667 13.4933 8.22 13.6C8.40667 13.7067 8.64 13.76 8.92 13.76C9.22667 13.76 9.54667 13.74 9.88 13.7C10.2133 13.6467 10.56 13.58 10.92 13.5C11.4933 13.3933 11.9933 13.3133 12.42 13.26C12.8467 13.2067 13.3133 13.18 13.82 13.18C14.7133 13.18 15.4533 13.3933 16.04 13.82C16.64 14.2467 16.94 14.9 16.94 15.78C16.94 16.7933 16.56 17.6533 15.8 18.36C15.0533 19.08 14.1133 19.6133 12.98 19.96C11.8467 20.32 10.7267 20.5 9.62 20.5ZM10.46 12.8C9.51333 12.8 8.67333 12.64 7.94 12.32C7.22 11.9867 6.65333 11.5267 6.24 10.94C5.84 10.3533 5.64 9.69333 5.64 8.96C5.64 8.24 5.84 7.59333 6.24 7.02C6.65333 6.43333 7.22667 5.98 7.96 5.66C8.69333 5.32667 9.52667 5.16 10.46 5.16C11.0333 5.16 11.4933 5.20667 11.84 5.3C12.2 5.39333 12.5867 5.52 13 5.68C13.16 5.74667 13.3067 5.80667 13.44 5.86C13.5867 5.9 13.7267 5.92 13.86 5.92C14.2067 5.92 14.4533 5.8 14.6 5.56C14.7467 5.32 14.82 5.00667 14.82 4.62L17.34 5.42C17.3267 5.92667 17.12 6.32 16.72 6.6C16.3333 6.86667 15.82 7 15.18 7C15.02 6.98667 14.84 6.97333 14.64 6.96C15.0667 7.54667 15.28 8.21333 15.28 8.96C15.28 9.69333 15.0733 10.3533 14.66 10.94C14.26 11.5267 13.6933 11.9867 12.96 12.32C12.2267 12.64 11.3933 12.8 10.46 12.8ZM10.46 10.84C10.7933 10.84 11.0867 10.76 11.34 10.6C11.5933 10.44 11.7867 10.22 11.92 9.94C12.0533 9.64667 12.12 9.32 12.12 8.96C12.12 8.42667 11.9667 7.98667 11.66 7.64C11.3667 7.29333 10.9667 7.12 10.46 7.12C10.1267 7.12 9.83333 7.2 9.58 7.36C9.32667 7.52 9.12667 7.74 8.98 8.02C8.84667 8.3 8.78 8.61333 8.78 8.96C8.78 9.50667 8.93333 9.96 9.24 10.32C9.56 10.6667 9.96667 10.84 10.46 10.84Z" stroke="black" stroke-width="2" mask="url(#path-1-outside-1_1_196)"/>
        <path d="M18.0628 5.44H21.2228V13.72C21.2228 14.6667 21.2695 15.5333 21.3628 16.32H18.0628V5.44ZM18.0228 1.5H21.2428V4.28H18.0228V1.5Z" stroke="black" stroke-width="2" mask="url(#path-1-outside-1_1_196)"/>
        <path d="M32.6828 16.6C31.8295 16.6 31.1628 16.3533 30.6828 15.86C30.2028 15.3667 29.9628 14.6467 29.9628 13.7V9.38C29.9628 8.74 29.8095 8.26 29.5028 7.94C29.2095 7.60667 28.7561 7.44 28.1428 7.44C27.5028 7.44 26.8828 7.62667 26.2828 8C25.6828 8.37333 25.1628 8.92 24.7228 9.64L22.5628 7.96C23.3228 7.04 24.2028 6.34667 25.2028 5.88C26.2161 5.4 27.3095 5.16 28.4828 5.16C29.5761 5.16 30.4628 5.33333 31.1428 5.68C31.8228 6.01333 32.3228 6.49333 32.6428 7.12C32.9628 7.73333 33.1228 8.46 33.1228 9.3V13.8C33.1228 13.8133 33.1228 13.8267 33.1228 13.84C33.1228 13.84 33.1228 13.8467 33.1228 13.86C33.1361 14.0867 33.1895 14.2533 33.2828 14.36C33.3761 14.4667 33.5095 14.52 33.6828 14.52C33.8295 14.52 33.9695 14.5133 34.1028 14.5C34.2495 14.4733 34.4028 14.4333 34.5628 14.38L34.1628 16.32C33.9361 16.4133 33.6961 16.48 33.4428 16.52C33.1895 16.5733 32.9361 16.6 32.6828 16.6ZM26.1628 16.6C25.0695 16.6 24.2028 16.32 23.5628 15.76C22.9361 15.1867 22.6228 14.4533 22.6228 13.56C22.6228 12.7733 22.9161 12.0733 23.5028 11.46C24.0895 10.8333 24.9628 10.3267 26.1228 9.94C27.2828 9.55333 28.7095 9.29333 30.4028 9.16V11.16C29.3761 11.2533 28.5295 11.3867 27.8628 11.56C27.2095 11.7333 26.7161 11.9533 26.3828 12.22C26.0628 12.4733 25.9028 12.78 25.9028 13.14C25.9028 13.4333 26.0095 13.6733 26.2228 13.86C26.4495 14.0333 26.7561 14.12 27.1428 14.12C27.6628 14.12 28.1361 14.0067 28.5628 13.78C28.9895 13.5533 29.3295 13.2333 29.5828 12.82C29.8361 12.4067 29.9628 11.92 29.9628 11.36L30.5828 11.54C30.5828 12.3933 30.4295 13.2067 30.1228 13.98C29.8161 14.74 29.3295 15.3667 28.6628 15.86C28.0095 16.3533 27.1761 16.6 26.1628 16.6Z" stroke="black" stroke-width="2" mask="url(#path-1-outside-1_1_196)"/>
        <path d="M35.4261 5.44H38.6061V8.04C39.0328 7.12 39.5394 6.41333 40.1261 5.92C40.7128 5.41333 41.3194 5.16 41.9461 5.16C42.3194 5.16 42.6528 5.22 42.9461 5.34C43.2394 5.44667 43.5328 5.6 43.8261 5.8L42.5461 8.58C42.2661 8.39333 42.0128 8.26 41.7861 8.18C41.5594 8.08667 41.2994 8.04 41.0061 8.04C40.5794 8.04 40.1861 8.16667 39.8261 8.42C39.4661 8.66 39.1728 9.02667 38.9461 9.52C38.7194 10.0133 38.6061 10.6067 38.6061 11.3V13.72C38.6061 14.6667 38.6528 15.5333 38.7461 16.32H35.4261V5.44Z" stroke="black" stroke-width="2" mask="url(#path-1-outside-1_1_196)"/>
        <path d="M48.6012 16.6C47.5612 16.6 46.6546 16.3667 45.8812 15.9C45.1079 15.42 44.5079 14.7533 44.0812 13.9C43.6679 13.0333 43.4613 12.0267 43.4613 10.88C43.4613 9.73333 43.6679 8.73333 44.0812 7.88C44.5079 7.01333 45.1079 6.34667 45.8812 5.88C46.6546 5.4 47.5612 5.16 48.6012 5.16C49.3346 5.16 50.0213 5.34667 50.6613 5.72C51.3013 6.09333 51.8212 6.60667 52.2212 7.26V2.02H55V13.72C55 14.6667 55.0533 15.5333 55.16 16.32H52.2212V14.42C51.8346 15.1 51.3212 15.6333 50.6812 16.02C50.0546 16.4067 49.3612 16.6 48.6012 16.6ZM46.8013 10.88C46.8013 11.5333 46.9146 12.1133 47.1413 12.62C47.3679 13.1133 47.6812 13.5 48.0812 13.78C48.4812 14.0467 48.9546 14.18 49.5013 14.18C49.9946 14.18 50.4479 14.04 50.8612 13.76C51.2746 13.48 51.6012 13.1133 51.8412 12.66C52.0946 12.1933 52.2212 11.7 52.2212 11.18V10.58C52.2212 10.0333 52.0946 9.53333 51.8412 9.08C51.5879 8.62667 51.2479 8.26667 50.8213 8C50.4079 7.72 49.9679 7.58 49.5013 7.58C48.9546 7.58 48.4812 7.72 48.0812 8C47.6812 8.26667 47.3679 8.65333 47.1413 9.16C46.9146 9.65333 46.8013 10.2267 46.8013 10.88Z" stroke="black" stroke-width="2" mask="url(#path-1-outside-1_1_196)"/>
        <path d="M62.0434 16.6C61.0301 16.6 60.1301 16.36 59.3434 15.88C58.5568 15.4 57.9434 14.7267 57.5034 13.86C57.0768 12.9933 56.8634 12 56.8634 10.88C56.8634 9.76 57.0768 8.76667 57.5034 7.9C57.9434 7.03333 58.5568 6.36 59.3434 5.88C60.1301 5.4 61.0301 5.16 62.0434 5.16C62.9101 5.16 63.6968 5.39333 64.4034 5.86C65.1234 6.31333 65.6768 6.93333 66.0634 7.72V2.02H67.8834V13.72C67.8834 14.68 67.9168 15.5467 67.9834 16.32H66.0634V14.02C65.6901 14.8067 65.1434 15.4333 64.4234 15.9C63.7168 16.3667 62.9234 16.6 62.0434 16.6ZM58.8234 10.88C58.8234 11.7067 58.9768 12.4467 59.2834 13.1C59.5901 13.74 60.0168 14.24 60.5634 14.6C61.1101 14.96 61.7368 15.14 62.4434 15.14C63.1101 15.14 63.7168 14.9667 64.2634 14.62C64.8234 14.2733 65.2634 13.82 65.5834 13.26C65.9034 12.6867 66.0634 12.06 66.0634 11.38V10.38C66.0634 9.7 65.8968 9.07333 65.5634 8.5C65.2434 7.92667 64.8034 7.47333 64.2434 7.14C63.6968 6.79333 63.0968 6.62 62.4434 6.62C61.7368 6.62 61.1101 6.8 60.5634 7.16C60.0168 7.52 59.5901 8.02667 59.2834 8.68C58.9768 9.32 58.8234 10.0533 58.8234 10.88Z" stroke="black" stroke-width="2" mask="url(#path-1-outside-1_1_196)"/>
        <path d="M75.2959 16.6C74.3093 16.6 73.3959 16.3933 72.5559 15.98C71.7159 15.5667 71.0426 14.9533 70.5359 14.14C70.0426 13.3267 69.7959 12.34 69.7959 11.18C69.7959 10.02 70.0293 8.98667 70.4959 8.08C70.9759 7.16 71.6293 6.44667 72.4559 5.94C73.2959 5.42 74.2493 5.16 75.3159 5.16C76.4093 5.16 77.3359 5.40667 78.0959 5.9C78.8559 6.39333 79.4293 7.09333 79.8159 8C80.2159 8.89333 80.4159 9.94 80.4159 11.14H70.6959V9.72H79.1959L78.5359 10.3C78.5359 9.59333 78.4093 8.96 78.1559 8.4C77.9026 7.82667 77.5293 7.38 77.0359 7.06C76.5559 6.74 75.9826 6.58 75.3159 6.58C74.5959 6.58 73.9626 6.76667 73.4159 7.14C72.8826 7.5 72.4626 8.02667 72.1559 8.72C71.8493 9.4 71.6959 10.1933 71.6959 11.1C71.6959 12.02 71.8626 12.7867 72.1959 13.4C72.5293 14.0133 72.9693 14.4667 73.5159 14.76C74.0626 15.04 74.6626 15.18 75.3159 15.18C76.2626 15.18 77.0493 14.9333 77.6759 14.44C78.3159 13.9467 78.7759 13.3267 79.0559 12.58L80.5759 13.64C79.9493 14.6 79.1893 15.3333 78.2959 15.84C77.4026 16.3467 76.4026 16.6 75.2959 16.6Z" stroke="black" stroke-width="2" mask="url(#path-1-outside-1_1_196)"/>
        <path d="M86.8277 16.6C85.6943 16.6 84.6343 16.3533 83.6477 15.86C82.6743 15.3533 81.8943 14.66 81.3077 13.78L82.6677 12.66C83.041 13.4733 83.601 14.1067 84.3477 14.56C85.1077 15.0133 85.9477 15.24 86.8677 15.24C87.3477 15.24 87.7743 15.1733 88.1477 15.04C88.521 14.8933 88.8143 14.6933 89.0277 14.44C89.241 14.1733 89.3477 13.86 89.3477 13.5C89.3477 13.1133 89.2077 12.7933 88.9277 12.54C88.6477 12.2733 88.301 12.0667 87.8877 11.92C87.4877 11.76 86.9277 11.5867 86.2077 11.4C85.3143 11.16 84.5877 10.9333 84.0277 10.72C83.481 10.4933 83.0077 10.1733 82.6077 9.76C82.221 9.34667 82.0277 8.8 82.0277 8.12C82.0277 7.54667 82.1943 7.03333 82.5277 6.58C82.861 6.12667 83.3343 5.78 83.9477 5.54C84.561 5.28667 85.2543 5.16 86.0277 5.16C87.001 5.16 87.901 5.32667 88.7277 5.66C89.5677 5.99333 90.3077 6.58667 90.9477 7.44L89.5877 8.56C89.2677 7.89333 88.781 7.38667 88.1277 7.04C87.4743 6.69333 86.7677 6.52 86.0077 6.52C85.3543 6.52 84.821 6.65333 84.4077 6.92C84.0077 7.17333 83.8077 7.51333 83.8077 7.94C83.8077 8.28667 83.9343 8.57333 84.1877 8.8C84.4543 9.02667 84.781 9.21333 85.1677 9.36C85.5543 9.49333 86.081 9.64667 86.7477 9.82C87.681 10.0733 88.4343 10.3133 89.0077 10.54C89.5943 10.7667 90.0943 11.1067 90.5077 11.56C90.9343 12 91.1477 12.5867 91.1477 13.32C91.1477 13.9867 90.9543 14.5733 90.5677 15.08C90.181 15.5733 89.661 15.9533 89.0077 16.22C88.3677 16.4733 87.641 16.6 86.8277 16.6Z" stroke="black" stroke-width="2" mask="url(#path-1-outside-1_1_196)"/>
        <path d="M92.8359 5.44H94.6559V13.72C94.6559 14.68 94.6893 15.5467 94.7559 16.32H92.8359V5.44ZM92.7159 1.86H94.7759V3.8H92.7159V1.86Z" stroke="black" stroke-width="2" mask="url(#path-1-outside-1_1_196)"/>
        <path d="M100.293 20.5C99.1733 20.5 98.2133 20.2733 97.4133 19.82C96.6133 19.3667 96.2133 18.7 96.2133 17.82C96.2133 17.3267 96.3866 16.8867 96.7333 16.5C97.0799 16.1133 97.5466 15.7867 98.1333 15.52C98.7199 15.24 99.4199 15 100.233 14.8C100.393 14.76 100.533 14.7267 100.653 14.7L100.893 15.02C100.28 15.22 99.7666 15.4333 99.3533 15.66C98.9399 15.8733 98.6133 16.1267 98.3733 16.42C98.1333 16.7133 98.0133 17.06 98.0133 17.46C98.0133 18.02 98.2599 18.4333 98.7533 18.7C99.2599 18.9667 99.8866 19.1 100.633 19.1C101.433 19.1 102.213 18.98 102.973 18.74C103.747 18.5 104.373 18.16 104.853 17.72C105.333 17.2933 105.573 16.8 105.573 16.24C105.573 15.8533 105.44 15.5533 105.173 15.34C104.907 15.1133 104.52 15 104.013 15C103.693 15 103.347 15.04 102.973 15.12C102.613 15.1867 102.12 15.3 101.493 15.46C100.973 15.6067 100.54 15.72 100.193 15.8C99.8466 15.8667 99.5399 15.9 99.2733 15.9C98.7933 15.9 98.3466 15.8333 97.9333 15.7C97.5333 15.5533 97.2066 15.3467 96.9533 15.08C96.7133 14.8 96.5933 14.4733 96.5933 14.1C96.5933 13.54 96.8733 13.0467 97.4333 12.62C97.9933 12.18 98.7466 11.8333 99.6933 11.58L100.073 12.08C99.7933 12.16 99.56 12.2467 99.3733 12.34C98.9733 12.5 98.6799 12.6867 98.4933 12.9C98.3066 13.1 98.2133 13.32 98.2133 13.56C98.2133 13.8267 98.3333 14.0133 98.5733 14.12C98.8133 14.2267 99.1266 14.28 99.5133 14.28C99.8466 14.28 100.193 14.2467 100.553 14.18C100.913 14.1 101.327 14 101.793 13.88C102.353 13.7333 102.833 13.6267 103.233 13.56C103.647 13.48 104.073 13.44 104.513 13.44C105.42 13.44 106.147 13.6533 106.693 14.08C107.24 14.5067 107.513 15.1267 107.513 15.94C107.513 16.86 107.153 17.6667 106.433 18.36C105.727 19.0533 104.813 19.58 103.693 19.94C102.587 20.3133 101.453 20.5 100.293 20.5ZM101.373 12.68C100.52 12.68 99.7666 12.52 99.1133 12.2C98.4599 11.8667 97.9466 11.4133 97.5733 10.84C97.2133 10.2667 97.0333 9.62667 97.0333 8.92C97.0333 8.21333 97.2133 7.57333 97.5733 7C97.9466 6.42667 98.4599 5.98 99.1133 5.66C99.7799 5.32667 100.533 5.16 101.373 5.16C101.947 5.16 102.42 5.22 102.793 5.34C103.167 5.46 103.56 5.62 103.973 5.82C104.2 5.94 104.393 6.03333 104.553 6.1C104.713 6.15333 104.88 6.18 105.053 6.18C105.453 6.18 105.74 6.06 105.913 5.82C106.1 5.56667 106.193 5.24 106.193 4.84L107.713 5.36C107.7 5.89333 107.493 6.3 107.093 6.58C106.693 6.86 106.227 7 105.693 7C105.56 7 105.38 6.98667 105.153 6.96C105.54 7.52 105.733 8.17333 105.733 8.92C105.733 9.62667 105.553 10.2667 105.193 10.84C104.833 11.4133 104.32 11.8667 103.653 12.2C102.987 12.52 102.227 12.68 101.373 12.68ZM101.373 11.46C101.893 11.46 102.34 11.3533 102.713 11.14C103.087 10.9133 103.373 10.6067 103.573 10.22C103.773 9.82 103.873 9.38667 103.873 8.92C103.873 8.2 103.647 7.6 103.193 7.12C102.753 6.62667 102.147 6.38 101.373 6.38C100.867 6.38 100.42 6.49333 100.033 6.72C99.6599 6.94667 99.3733 7.25333 99.1733 7.64C98.9866 8.01333 98.8933 8.44 98.8933 8.92C98.8933 9.65333 99.1133 10.26 99.5533 10.74C100.007 11.22 100.613 11.46 101.373 11.46Z" stroke="black" stroke-width="2" mask="url(#path-1-outside-1_1_196)"/>
        <path d="M109.008 5.44H110.828V8.6C111.094 7.92 111.474 7.32 111.968 6.8C112.461 6.28 113.021 5.88 113.648 5.6C114.274 5.30667 114.914 5.16 115.568 5.16C116.381 5.16 117.061 5.32 117.608 5.64C118.168 5.94667 118.581 6.37333 118.848 6.92C119.128 7.46667 119.268 8.1 119.268 8.82V13.72C119.268 14.68 119.301 15.5467 119.368 16.32H117.448V9.1C117.448 8.3 117.248 7.69333 116.848 7.28C116.461 6.86667 115.841 6.66 114.988 6.66C114.361 6.66 113.721 6.85333 113.068 7.24C112.428 7.62667 111.894 8.17333 111.468 8.88C111.041 9.57333 110.828 10.38 110.828 11.3V16.32H109.008V5.44Z" stroke="black" stroke-width="2" mask="url(#path-1-outside-1_1_196)"/>
    </g>
    <defs>
        <filter id="filter0_d_1_196" x="0" y="0.5" width="124.458" height="29" filterUnits="userSpaceOnUse" color-interpolation-filters="sRGB">
            <feFlood flood-opacity="0" result="BackgroundImageFix"/>
            <feColorMatrix in="SourceAlpha" type="matrix" values="0 0 0 0 0 0 0 0 0 0 0 0 0 0 0 0 0 0 127 0" result="hardAlpha"/>
            <feOffset dy="4"/>
            <feGaussianBlur stdDeviation="2"/>
            <feComposite in2="hardAlpha" operator="out"/>
            <feColorMatrix type="matrix" values="0 0 0 0 0 0 0 0 0 0 0 0 0 0 0 0 0 0 0.25 0"/>
            <feBlend mode="normal" in2="BackgroundImageFix" result="effect1_dropShadow_1_196"/>
            <feBlend mode="normal" in="SourceGraphic" in2="effect1_dropShadow_1_196" result="shape"/>
        </filter>
    </defs>
</svg>
