<svg width="114" height="24" viewBox="0 0 114 24" fill="none" xmlns="http://www.w3.org/2000/svg">
<path d="M11.1245 4.72732C11.3425 4.72732 11.554 4.73699 11.7655 4.7532C12.4514 4.81155 13.1116 4.96395 13.7301 5.19088C15.291 5.76792 16.6146 6.84099 17.5088 8.22524C17.1371 5.34652 15.4064 2.89895 12.9866 1.57305C11.7431 0.889035 10.3169 0.5 8.80092 0.5C7.52213 0.5 5.535 0.77227 4.4389 1.26827C2.79795 1.868 1.7243 2.84379 0.5 3.94924L5.57348 7.15543C6.96124 5.65771 8.93232 4.72732 11.1245 4.72732Z" fill="#003EDC"/>
<path d="M16.4666 11.9554H16.4634C16.3096 11.9684 16.1558 11.9781 16.0051 11.9846H15.9667C15.3289 12.0008 14.6846 11.9359 14.0597 11.7901C13.2488 11.602 12.4604 11.2811 11.7329 10.8175C11.2521 10.516 10.8002 10.153 10.3836 9.73156C10.265 9.61485 10.1529 9.49162 10.0471 9.36844C9.26829 8.4737 8.73305 7.44604 8.43499 6.36328C7.56964 6.77823 6.79399 7.35526 6.14658 8.049C5.39982 8.84973 4.82293 9.81261 4.47038 10.8792C4.39987 11.0964 4.33574 11.32 4.28126 11.5502L4.12743 12.4254L3.5153 15.9331L3.37109 16.75L3.90309 16.2897L4.7973 15.5116L4.65309 13.5537C4.62104 13.3559 4.60497 13.1549 4.60497 12.9474V12.9279L9.79069 13.0447C8.94778 13.4337 7.46064 14.7433 6.88054 15.3593L6.87412 15.369C6.74272 15.5084 6.61774 15.6511 6.49595 15.8002L6.05363 17.5962L6.00237 17.8036H6.00558L5.88062 18.3093L5.85817 18.4034L4.60497 23.4995L9.33232 20.9416L9.37723 20.705L9.55673 19.7519C9.57596 19.6612 9.59517 19.5834 9.6144 19.5153C9.66568 19.3208 9.69135 19.2268 9.7234 19.1393C9.77468 18.9772 9.83237 18.8183 9.88685 18.6756C10.9669 15.8326 12.3226 15.1842 12.2328 15.1842C12.3034 15.1259 12.3803 15.0707 12.4572 15.0189C13.1142 14.5553 13.9732 14.2214 14.9026 14.0918C15.0436 14.0723 15.2039 14.0561 15.3705 14.0528L15.4155 14.0496L16.2712 13.0868L17.4025 11.8095L17.3416 11.8225C17.0499 11.8841 16.7583 11.9295 16.4666 11.9554Z" fill="#003EDC"/>
<path d="M26.7369 15.9506C26.5607 16.4272 26.2786 16.7936 25.862 17.0432C25.455 17.2895 24.987 17.4095 24.4614 17.4095C23.9197 17.4095 23.4967 17.2993 23.189 17.0626C22.8813 16.8292 22.7211 16.5116 22.7211 16.1096C22.7211 15.2732 23.3524 14.8517 24.6184 14.8517H26.7369V15.9506ZM28.4901 9.62597C27.6087 8.83173 26.3428 8.42969 24.6954 8.42969C23.8461 8.42969 23.0096 8.54317 22.1955 8.77009C21.3878 9.00026 20.6859 9.32119 20.1091 9.7329L21.2148 11.9114C21.5994 11.6066 22.0672 11.3635 22.6153 11.1787C23.1601 11.0037 23.7147 10.913 24.2819 10.913C25.1024 10.913 25.7114 11.0945 26.1152 11.4608C26.5318 11.8271 26.7369 12.3523 26.7369 13.0299H24.2819C22.7307 13.0299 21.5769 13.3216 20.8302 13.8889C20.0834 14.4627 19.7148 15.257 19.7148 16.2554C19.7148 16.8779 19.8719 17.4419 20.1924 17.9282C20.5065 18.4242 20.9648 18.8132 21.5609 19.0953C22.1635 19.3676 22.8717 19.5135 23.6954 19.5135C25.2755 19.5135 26.3524 19.0109 26.9293 18.0125V19.3545H29.817V13.2113C29.817 11.6131 29.3778 10.417 28.4901 9.62597Z" fill="#F5F0EC"/>
<path d="M53.9242 12.9443C54.0204 11.8454 54.421 10.9701 55.1421 10.2861C55.8504 9.60855 56.7285 9.27136 57.7798 9.27136C58.847 9.27136 59.7316 9.60855 60.4528 10.2861C61.1643 10.9701 61.5681 11.8454 61.661 12.9443H53.9242ZM63.0776 13.5895C63.0776 12.5035 62.8469 11.5342 62.3886 10.6913C61.9303 9.84196 61.3053 9.17735 60.5009 8.70729C59.6996 8.22426 58.7957 7.98438 57.7798 7.98438C56.7702 7.98438 55.8632 8.22426 55.0555 8.70729C54.2479 9.17735 53.6069 9.84196 53.1486 10.6978C52.6839 11.5536 52.4531 12.5197 52.4531 13.5895C52.4531 14.669 52.6903 15.6383 53.1807 16.4941C53.6614 17.337 54.3345 18.0113 55.1966 18.4911C56.0652 18.9806 57.0555 19.2205 58.1773 19.2205C59.0458 19.2205 59.8438 19.0681 60.5714 18.7569C61.2989 18.4521 61.9078 18.0048 62.3886 17.4116L61.5617 16.4423C61.1482 16.9253 60.6515 17.2851 60.0874 17.5315C59.5201 17.7746 58.8951 17.9011 58.2157 17.9011C57.017 17.9011 56.0202 17.5412 55.2286 16.8378C54.4466 16.131 54.014 15.2071 53.9242 14.053H63.052L63.0776 13.5895Z" fill="#F5F0EC"/>
<path d="M71.4286 14.3902C71.0569 13.9817 70.6081 13.7029 70.0857 13.5344C69.5537 13.3658 68.8614 13.1972 67.9928 13.0319C67.2781 12.9055 66.7269 12.7757 66.3327 12.6623C65.9289 12.5423 65.5892 12.3608 65.3199 12.1047C65.0507 11.8453 64.9161 11.5115 64.9161 11.0965C64.9161 10.5519 65.1533 10.1142 65.6372 9.7771C66.1116 9.44319 66.8198 9.27136 67.7621 9.27136C69.0024 9.27136 70.0793 9.58263 70.9767 10.218L71.6209 9.01849C71.1594 8.71376 70.5825 8.46745 69.8806 8.27618C69.1691 8.08168 68.464 7.98438 67.7621 7.98438C66.4 7.98438 65.3424 8.28262 64.5828 8.87263C63.8232 9.45615 63.4482 10.218 63.4482 11.1354C63.4482 11.8778 63.6373 12.4613 64.0155 12.8795C64.3937 13.3042 64.852 13.596 65.3904 13.7743C65.9353 13.9493 66.6468 14.1178 67.5345 14.2864C68.198 14.3999 68.7268 14.5101 69.1274 14.6301C69.5344 14.75 69.8646 14.9251 70.1242 15.1553C70.387 15.3887 70.5184 15.7096 70.5184 16.1083C70.5184 16.6854 70.2812 17.1327 69.8037 17.4439C69.3262 17.7551 68.5922 17.9141 67.5954 17.9141C66.8455 17.9141 66.1243 17.8038 65.4385 17.5704C64.743 17.337 64.1758 17.0452 63.7174 16.6757L63.0508 17.8524C63.5091 18.2447 64.1437 18.5721 64.9481 18.8282C65.7558 19.0908 66.6083 19.2205 67.4929 19.2205C68.8999 19.2205 70.0056 18.9287 70.8004 18.3711C71.5952 17.8038 71.9927 17.0387 71.9927 16.0694C71.9927 15.3595 71.81 14.7986 71.4286 14.3902Z" fill="#F5F0EC"/>
<path d="M82.4374 15.8393C82.0785 16.5006 81.5977 17.0063 80.9727 17.3629C80.3478 17.7162 79.6619 17.9011 78.8959 17.9011C78.1171 17.9011 77.4216 17.7162 76.8159 17.3629C76.2005 17.0063 75.7102 16.5006 75.3609 15.8393C75.0051 15.1812 74.832 14.4323 74.832 13.5895C74.832 12.7531 75.0051 12.0107 75.3609 11.3591C75.7102 10.7043 76.2005 10.2018 76.8159 9.83543C77.4216 9.47235 78.1171 9.29083 78.8959 9.29083C79.6619 9.29083 80.3478 9.47235 80.9727 9.83543C81.5977 10.2018 82.0785 10.7043 82.4374 11.3591C82.79 12.0107 82.9631 12.7531 82.9631 13.5895C82.9631 14.4323 82.79 15.1812 82.4374 15.8393ZM83.7291 10.6718C83.2643 9.82249 82.6073 9.1612 81.7804 8.6879C80.9503 8.22432 80.0241 7.98438 79.0017 7.98438C78.0883 7.98438 77.2646 8.18539 76.5371 8.57765C75.8192 8.96991 75.2359 9.53072 74.7904 10.2569V8.07515H73.377V23.1852H74.8545V17.0387C75.3032 17.7487 75.8929 18.2933 76.6012 18.6596C77.3223 19.0357 78.1171 19.2205 79.0017 19.2205C80.0401 19.2205 80.9728 18.987 81.7932 18.517C82.6169 18.0469 83.2643 17.3889 83.7291 16.533C84.2066 15.6772 84.4373 14.7014 84.4373 13.5895C84.4373 12.5035 84.2066 11.5277 83.7291 10.6718Z" fill="#F5F0EC"/>
<path d="M86.6664 12.9443C86.769 11.8454 87.1696 10.9701 87.8843 10.2861C88.5926 9.60855 89.4804 9.27136 90.5285 9.27136C91.5893 9.27136 92.4834 9.60855 93.1949 10.2861C93.9065 10.9701 94.3103 11.8454 94.4032 12.9443H86.6664ZM95.8199 13.5895C95.8199 12.5035 95.5891 11.5342 95.1308 10.6913C94.6789 9.84196 94.0475 9.17735 93.2431 8.70729C92.4418 8.22426 91.5316 7.98438 90.5285 7.98438C89.5189 7.98438 88.6087 8.22426 87.7946 8.70729C86.9869 9.17735 86.3492 9.84196 85.8908 10.6978C85.4261 11.5536 85.1953 12.5197 85.1953 13.5895C85.1953 14.669 85.4389 15.6383 85.9229 16.4941C86.4036 17.337 87.0767 18.0113 87.9452 18.4911C88.8074 18.9806 89.8041 19.2205 90.9162 19.2205C91.7944 19.2205 92.5925 19.0681 93.32 18.7569C94.0475 18.4521 94.6468 18.0048 95.1308 17.4116L94.3007 16.4423C93.8905 16.9253 93.4001 17.2851 92.8296 17.5315C92.2591 17.7746 91.6373 17.9011 90.9675 17.9011C89.756 17.9011 88.7593 17.5412 87.9773 16.8378C87.1889 16.131 86.753 15.2071 86.6664 14.053H95.7942L95.8199 13.5895Z" fill="#F5F0EC"/>
<path d="M105.208 16.2737L106.308 17.0323C105.875 17.7455 105.288 18.29 104.545 18.6564C103.795 19.0324 102.955 19.2173 102.032 19.2173C100.949 19.2173 99.9842 18.9773 99.1381 18.504C98.2856 18.0242 97.6221 17.3597 97.1318 16.4973C96.6478 15.635 96.4043 14.6657 96.4043 13.5862C96.4043 12.5164 96.6478 11.5471 97.1318 10.6946C97.6221 9.83872 98.2856 9.1741 99.1381 8.7008C99.9842 8.22426 100.949 7.98438 102.032 7.98438C102.971 7.98438 103.811 8.17563 104.555 8.54196C105.298 8.91152 105.875 9.4529 106.308 10.1661L105.208 10.9247C104.846 10.3801 104.388 9.97485 103.833 9.69281C103.282 9.4205 102.68 9.28758 102.032 9.28758C101.241 9.28758 100.529 9.46261 99.9073 9.82245C99.2727 10.1823 98.7823 10.6848 98.4266 11.3397C98.0804 12.0042 97.9074 12.7466 97.9074 13.5862C97.9074 14.4421 98.0804 15.1941 98.4266 15.849C98.7823 16.4973 99.2727 16.9998 99.9073 17.3596C100.529 17.713 101.241 17.8978 102.032 17.8978C102.68 17.8978 103.282 17.7617 103.833 17.4958C104.388 17.2235 104.846 16.8248 105.208 16.2737Z" fill="#F5F0EC"/>
<path d="M112.973 17.4079C112.768 17.5927 112.522 17.7288 112.239 17.8229C111.954 17.9298 111.663 17.9752 111.355 17.9752C110.743 17.9752 110.278 17.797 109.954 17.4566C109.631 17.1194 109.464 16.6169 109.464 15.9588V9.37154H112.784V8.11044H109.464V5.69531H107.996V16.0399C107.996 17.061 108.272 17.8553 108.823 18.4129C109.377 18.977 110.166 19.2558 111.188 19.2558C111.631 19.2558 112.057 19.1909 112.467 19.0548C112.871 18.9186 113.217 18.7273 113.496 18.481L112.973 17.4079Z" fill="#F5F0EC"/>
<path d="M26.7369 15.9506C26.5607 16.4272 26.2786 16.7936 25.862 17.0432C25.455 17.2895 24.987 17.4095 24.4614 17.4095C23.9197 17.4095 23.4967 17.2993 23.189 17.0626C22.8813 16.8292 22.7211 16.5116 22.7211 16.1096C22.7211 15.2732 23.3524 14.8517 24.6184 14.8517H26.7369V15.9506ZM28.4901 9.62597C27.6087 8.83173 26.3428 8.42969 24.6954 8.42969C23.8461 8.42969 23.0096 8.54317 22.1955 8.77009C21.3878 9.00026 20.6859 9.32119 20.1091 9.7329L21.2148 11.9114C21.5994 11.6066 22.0672 11.3635 22.6153 11.1787C23.1601 11.0037 23.7147 10.913 24.2819 10.913C25.1024 10.913 25.7114 11.0945 26.1152 11.4608C26.5318 11.8271 26.7369 12.3523 26.7369 13.0299H24.2819C22.7307 13.0299 21.5769 13.3216 20.8302 13.8889C20.0834 14.4627 19.7148 15.257 19.7148 16.2554C19.7148 16.8779 19.8719 17.4419 20.1924 17.9282C20.5065 18.4242 20.9648 18.8132 21.5609 19.0953C22.1635 19.3676 22.8717 19.5135 23.6954 19.5135C25.2755 19.5135 26.3524 19.0109 26.9293 18.0125V19.3545H29.817V13.2113C29.817 11.6131 29.3778 10.417 28.4901 9.62597Z" fill="#F5F0EC"/>
<path d="M45.8151 13.1756H41.9467V5.80699H45.8151C47.2541 5.80699 48.3535 6.12468 49.1098 6.76655C49.8694 7.39871 50.2475 8.30639 50.2475 9.49937C50.2475 10.6664 49.8694 11.5644 49.1098 12.2128C48.3535 12.8514 47.2541 13.1756 45.8151 13.1756ZM38.2706 16.1353C37.7578 16.6735 37.1103 16.949 36.3347 16.949C35.5431 16.949 34.8925 16.6735 34.3797 16.1353C33.8573 15.6004 33.6009 14.8808 33.6009 13.9698C33.6009 13.0654 33.8573 12.3425 34.3797 11.8011C34.8925 11.2597 35.5431 10.9874 36.3347 10.9874C37.1103 10.9874 37.7578 11.2597 38.2706 11.8011C38.7834 12.3425 39.0365 13.0654 39.0365 13.9698C39.0365 14.8808 38.7834 15.6004 38.2706 16.1353ZM48.4721 14.1222C49.5297 13.7721 50.3501 13.2015 50.927 12.4105C51.4975 11.6163 51.7892 10.6535 51.7892 9.49937C51.7892 7.93358 51.2604 6.70173 50.2091 5.80699C49.1547 4.91226 47.7028 4.46484 45.8535 4.46484L38.9788 4.51352V9.72953C38.2161 8.86072 37.1552 8.42631 35.7995 8.42631C34.7964 8.42631 33.8862 8.65652 33.0817 9.11361C32.2676 9.56098 31.6363 10.2061 31.1683 11.049C30.7068 11.8918 30.4824 12.8611 30.4824 13.9698C30.4824 15.0753 30.7068 16.0511 31.1683 16.8874C31.6363 17.7271 32.2676 18.3754 33.0817 18.826C33.8862 19.2831 34.7964 19.5101 35.7995 19.5101C37.245 19.5101 38.3539 19.0465 39.1198 18.1096V19.3512H42.0653V14.495H45.8535C46.2574 14.495 46.642 14.4755 47.017 14.4334L50.3341 19.1567H52.0199L48.4721 14.1222Z" fill="#F5F0EC"/>
<path d="M53.9242 12.9443C54.0204 11.8454 54.421 10.9701 55.1421 10.2861C55.8504 9.60855 56.7285 9.27136 57.7798 9.27136C58.847 9.27136 59.7316 9.60855 60.4528 10.2861C61.1643 10.9701 61.5681 11.8454 61.661 12.9443H53.9242ZM63.0776 13.5895C63.0776 12.5035 62.8469 11.5342 62.3886 10.6913C61.9303 9.84196 61.3053 9.17735 60.5009 8.70729C59.6996 8.22426 58.7957 7.98438 57.7798 7.98438C56.7702 7.98438 55.8632 8.22426 55.0555 8.70729C54.2479 9.17735 53.6069 9.84196 53.1486 10.6978C52.6839 11.5536 52.4531 12.5197 52.4531 13.5895C52.4531 14.669 52.6903 15.6383 53.1807 16.4941C53.6614 17.337 54.3345 18.0113 55.1966 18.4911C56.0652 18.9806 57.0555 19.2205 58.1773 19.2205C59.0458 19.2205 59.8438 19.0681 60.5714 18.7569C61.2989 18.4521 61.9078 18.0048 62.3886 17.4116L61.5617 16.4423C61.1482 16.9253 60.6515 17.2851 60.0874 17.5315C59.5201 17.7746 58.8951 17.9011 58.2157 17.9011C57.017 17.9011 56.0202 17.5412 55.2286 16.8378C54.4466 16.131 54.014 15.2071 53.9242 14.053H63.052L63.0776 13.5895Z" fill="#F5F0EC"/>
<path d="M71.4287 14.3869C71.81 14.7954 71.9895 15.353 71.9895 16.0662C71.9895 17.0322 71.5952 17.8006 70.7972 18.3679C70.0056 18.9287 68.8999 19.2173 67.4929 19.2173C66.6083 19.2173 65.7558 19.0875 64.9481 18.8249C64.1405 18.5688 63.5091 18.2414 63.0508 17.8492L63.7142 16.6724C64.1725 17.042 64.743 17.337 65.4385 17.5704C66.1243 17.8006 66.8455 17.9141 67.5954 17.9141C68.5922 17.9141 69.3262 17.7519 69.8005 17.4407C70.2844 17.1295 70.5216 16.6821 70.5216 16.1051C70.5216 15.7064 70.387 15.3854 70.1242 15.1553C69.8646 14.9219 69.5312 14.7468 69.1306 14.6268C68.7268 14.5069 68.198 14.3934 67.5313 14.2832C66.6468 14.1146 65.9353 13.9461 65.3904 13.771C64.852 13.596 64.3937 13.301 64.0155 12.8763C63.6373 12.4613 63.445 11.8778 63.445 11.1322C63.445 10.2147 63.8264 9.4529 64.586 8.86938C65.3424 8.27937 66.4032 7.98438 67.7621 7.98438C68.464 7.98438 69.1691 8.07843 69.8806 8.26969C70.5857 8.4642 71.1594 8.71052 71.6209 9.01525L70.9799 10.2148C70.0793 9.58262 69.0024 9.27136 67.7621 9.27136C66.823 9.27136 66.1116 9.43671 65.6372 9.77385C65.1533 10.111 64.9161 10.5487 64.9161 11.0933C64.9161 11.5082 65.0507 11.8453 65.3199 12.1014C65.5892 12.3575 65.9289 12.5391 66.3327 12.659C66.7269 12.7725 67.2813 12.899 67.9928 13.0286C68.8614 13.1972 69.5569 13.3626 70.0857 13.5311C70.6081 13.6997 71.0569 13.9785 71.4287 14.3869Z" fill="#F5F0EC"/>
<path d="M82.4374 15.8393C82.0785 16.5006 81.5977 17.0063 80.9727 17.3629C80.3478 17.7162 79.6619 17.9011 78.8959 17.9011C78.1171 17.9011 77.4216 17.7162 76.8159 17.3629C76.2005 17.0063 75.7102 16.5006 75.3609 15.8393C75.0051 15.1812 74.832 14.4323 74.832 13.5895C74.832 12.7531 75.0051 12.0107 75.3609 11.3591C75.7102 10.7043 76.2005 10.2018 76.8159 9.83543C77.4216 9.47235 78.1171 9.29083 78.8959 9.29083C79.6619 9.29083 80.3478 9.47235 80.9727 9.83543C81.5977 10.2018 82.0785 10.7043 82.4374 11.3591C82.79 12.0107 82.9631 12.7531 82.9631 13.5895C82.9631 14.4323 82.79 15.1812 82.4374 15.8393ZM83.7291 10.6718C83.2643 9.82249 82.6073 9.1612 81.7804 8.6879C80.9503 8.22432 80.0241 7.98438 79.0017 7.98438C78.0883 7.98438 77.2646 8.18539 76.5371 8.57765C75.8192 8.96991 75.2359 9.53072 74.7904 10.2569V8.07515H73.377V23.1852H74.8545V17.0387C75.3032 17.7487 75.8929 18.2933 76.6012 18.6596C77.3223 19.0357 78.1171 19.2205 79.0017 19.2205C80.0401 19.2205 80.9728 18.987 81.7932 18.517C82.6169 18.0469 83.2643 17.3889 83.7291 16.533C84.2066 15.6772 84.4373 14.7014 84.4373 13.5895C84.4373 12.5035 84.2066 11.5277 83.7291 10.6718Z" fill="#F5F0EC"/>
<path d="M86.6664 12.9443C86.769 11.8454 87.1696 10.9701 87.8843 10.2861C88.5926 9.60855 89.4804 9.27136 90.5285 9.27136C91.5893 9.27136 92.4834 9.60855 93.1949 10.2861C93.9065 10.9701 94.3103 11.8454 94.4032 12.9443H86.6664ZM95.8199 13.5895C95.8199 12.5035 95.5891 11.5342 95.1308 10.6913C94.6789 9.84196 94.0475 9.17735 93.2431 8.70729C92.4418 8.22426 91.5316 7.98438 90.5285 7.98438C89.5189 7.98438 88.6087 8.22426 87.7946 8.70729C86.9869 9.17735 86.3492 9.84196 85.8908 10.6978C85.4261 11.5536 85.1953 12.5197 85.1953 13.5895C85.1953 14.669 85.4389 15.6383 85.9229 16.4941C86.4036 17.337 87.0767 18.0113 87.9452 18.4911C88.8074 18.9806 89.8041 19.2205 90.9162 19.2205C91.7944 19.2205 92.5925 19.0681 93.32 18.7569C94.0475 18.4521 94.6468 18.0048 95.1308 17.4116L94.3007 16.4423C93.8905 16.9253 93.4001 17.2851 92.8296 17.5315C92.2591 17.7746 91.6373 17.9011 90.9675 17.9011C89.756 17.9011 88.7593 17.5412 87.9773 16.8378C87.1889 16.131 86.753 15.2071 86.6664 14.053H95.7942L95.8199 13.5895Z" fill="#F5F0EC"/>
<path d="M113.499 18.4777C113.223 18.7273 112.874 18.9186 112.47 19.0548C112.06 19.1909 111.634 19.2558 111.191 19.2558C110.172 19.2558 109.381 18.9737 108.826 18.4161C108.275 17.8553 107.996 17.0643 107.996 16.0399V5.69531H109.467V8.11044H112.788V9.37154H109.467V15.9621C109.467 16.6169 109.634 17.1194 109.958 17.4566C110.281 17.8002 110.749 17.9752 111.358 17.9752C111.666 17.9752 111.957 17.9266 112.243 17.8229C112.528 17.7288 112.772 17.5927 112.977 17.4079L113.499 18.4777Z" fill="#F5F0EC"/>
</svg>
